#!OML:ASF F:\VICON\USERDATA\INSTALL\Justin_Nancy\Justin_Nancy.ASF
:FULLY-SPECIFIED
:DEGREES
33
root -9.32174 17.1757 -24.0365 2.02397 -7.04438 -5.63534
lowerback 7.86517 -1.86229 0.912476
upperback -1.35095 -2.02182 7.07169
thorax -5.62161 -0.91521 7.22696
lowerneck -9.72815 0.26686 -14.0425
upperneck 19.4211 1.96521 4.35146
head 7.42174 0.312383 3.93757
rclavicle 2.21148e-014 4.45278e-014
rhumerus -28.8625 7.84634 -80.9884
rradius 37.8714
rwrist 0.0152167
rhand -17.7211 8.20719
rfingers 7.12502
rthumb 8.53945 -21.6001
lclavicle 2.21148e-014 4.45278e-014
lhumerus -43.4177 12.1015 87.2397
lradius 29.0631
lwrist -9.97804
lhand -10.3341 28.4666
lfingers 7.12502
lthumb 15.6619 57.8527
rfemur 1.5386 5.45305 32.2174
rtibia 24.1447
rfoot -18.1907 -9.43088
rtoes 0.284112
lfemur -34.667 -0.28439 -13.7617
ltibia 44.6283
lfoot -9.90448 8.03752
ltoes -3.03016
34
root -9.31806 17.1536 -23.7737 2.29762 -7.47113 -5.97778
lowerback 7.43319 -0.686929 2.46052
upperback -0.663841 -0.420698 5.89885
thorax -4.84955 -0.197812 4.83822
lowerneck -11.6725 -1.09862 -12.2903
upperneck 19.7121 -0.0305053 4.73855
head 8.04591 -0.470114 3.62431
rclavicle 1.50579e-014 2.94201e-014
rhumerus -27.2713 4.10298 -81.2082
rradius 38.7747
rwrist 0.0043877
rhand -18.1655 9.5565
rfingers 7.12502
rthumb 8.11059 -20.2679
lclavicle 1.50579e-014 2.94201e-014
lhumerus -41.3837 7.9397 87.6807
lradius 27.8769
lwrist -10.0972
lhand -10.2261 28.2447
lfingers 7.12502
lthumb 15.7659 57.6226
rfemur 2.88482 5.51095 32.5131
rtibia 23.0434
rfoot -18.056 -9.32604
rtoes -0.953482
lfemur -35.1158 -0.867062 -12.8205
ltibia 41.4292
lfoot -8.49794 8.47785
ltoes -3.15721
35
root -9.30995 17.132 -23.5014 2.61207 -7.97738 -6.27585
lowerback 7.18512 0.885759 4.37091
upperback 0.390322 1.68644 4.20603
thorax -3.63233 0.794575 1.73441
lowerneck -16.0349 -2.8904 -9.35698
upperneck 20.6678 -2.71918 4.88065
head 9.3651 -1.47228 2.89731
rclavicle 2.45499e-014 4.69132e-014
rhumerus -24.8573 -1.40678 -81.6478
rradius 39.5442
rwrist 0.216703
rhand -18.316 10.2057
rfingers 7.12502
rthumb 7.96531 -19.6242
lclavicle 2.45499e-014 4.69132e-014
lhumerus -38.2162 1.9731 87.9785
lradius 26.5768
lwrist -9.93162
lhand -10.2416 27.8691
lfingers 7.12502
lthumb 15.751 57.2482
rfemur 4.18714 5.44586 32.6472
rtibia 21.9764
rfoot -18.0046 -8.9665
rtoes -2.23573
lfemur -35.4753 -1.73551 -11.7938
ltibia 38.1431
lfoot -6.89821 9.16547
ltoes -2.85271
36
root -9.30566 17.1126 -23.2291 2.95382 -8.4897 -6.237
lowerback 7.06089 1.02299 4.21742
upperback 0.228207 1.85714 4.18643
thorax -3.73524 0.879649 1.78385
lowerneck -16.0882 -2.90101 -9.34337
upperneck 20.7501 -2.71389 4.79412
head 9.4023 -1.47909 2.86626
rclavicle -9.14409e-015 -3.89618e-014
rhumerus -24.4734 -0.552091 -81.6651
rradius 40.6158
rwrist -0.142928
rhand -17.9632 10.8022
rfingers 7.12502
rthumb 8.30583 -19.0145
lclavicle -9.14409e-015 -3.89618e-014
lhumerus -38.8347 2.26458 88.063
lradius 25.9295
lwrist -10.3696
lhand -10.1144 27.3675
lfingers 7.12502
lthumb 15.8734 56.7369
rfemur 5.409 5.34689 32.3872
rtibia 20.8832
rfoot -17.9188 -8.47044
rtoes -3.83337
lfemur -35.8344 -2.90912 -10.9504
ltibia 34.9023
lfoot -5.65215 10.0689
ltoes -3.46911
37
root -9.30124 17.0861 -22.9562 3.22152 -8.82008 -6.31771
lowerback 7.02332 1.18662 4.16384
upperback 0.00418918 2.08335 4.21294
thorax -3.9508 0.989369 1.81808
lowerneck -15.8539 -3.02583 -9.39558
upperneck 20.7501 -2.88186 4.72426
head 9.37289 -1.57198 2.82943
rclavicle -9.49197e-015 -7.95139e-015
rhumerus -24.3983 -0.0591232 -81.5088
rradius 41.8651
rwrist -0.438962
rhand -17.6362 10.5722
rfingers 7.12502
rthumb 8.62139 -19.2318
lclavicle -9.49197e-015 -7.95139e-015
lhumerus -39.689 2.4032 88.2306
lradius 25.6531
lwrist -10.7106
lhand -9.33434 27.8219
lfingers 7.12502
lthumb 16.6246 57.1299
rfemur 6.81235 5.28291 32.302
rtibia 19.703
rfoot -17.5068 -8.26321
rtoes -4.58876
lfemur -36.1818 -4.33583 -9.84427
ltibia 31.845
lfoot -4.7399 11.1262
ltoes -5.2991
38
root -9.29488 17.0534 -22.6764 3.38273 -9.34113 -6.54362
lowerback 6.95991 1.28796 4.21947
upperback -0.119617 2.23125 4.34951
thorax -4.04845 1.06097 1.91492
lowerneck -15.6668 -3.05721 -9.71624
upperneck 20.694 -2.86895 4.75914
head 9.32483 -1.589 2.89662
rclavicle 1.04859e-014 -2.8625e-014
rhumerus -24.1415 0.800139 -81.4226
rradius 42.9267
rwrist -0.66256
rhand -17.7004 10.5097
rfingers 7.12502
rthumb 8.55945 -19.2968
lclavicle 1.04859e-014 -2.8625e-014
lhumerus -40.4597 3.31713 88.0958
lradius 25.475
lwrist -11.6166
lhand -9.45861 27.7369
lfingers 7.12502
lthumb 16.5049 57.0549
rfemur 8.40314 5.40842 32.3461
rtibia 18.5727
rfoot -16.706 -8.2937
rtoes -5.34356
lfemur -36.3696 -5.92135 -8.36023
ltibia 29.005
lfoot -4.50871 12.7664
ltoes -4.17988
39
root -9.28841 17.0174 -22.3906 3.53926 -10.0647 -6.75092
lowerback 6.66578 1.46831 4.34898
upperback -0.0163005 2.45303 4.36907
thorax -3.77164 1.17258 1.84855
lowerneck -15.9595 -3.05545 -9.73965
upperneck 20.7433 -2.82917 4.75435
head 9.39338 -1.57031 2.9032
rclavicle -1.08835e-014 -1.11319e-014
rhumerus -23.565 1.23696 -81.4236
rradius 43.8984
rwrist -0.701732
rhand -17.7702 10.6642
rfingers 7.12502
rthumb 8.49209 -19.1451
lclavicle -1.08835e-014 -1.11319e-014
lhumerus -40.6666 4.09043 87.8289
lradius 24.9857
lwrist -12.4023
lhand -10.6362 26.7367
lfingers 7.12502
lthumb 15.371 56.1454
rfemur 9.89841 5.62828 32.2637
rtibia 17.6449
rfoot -16.2973 -7.91526
rtoes -6.219
lfemur -36.4252 -7.56797 -6.74691
ltibia 26.3928
lfoot -5.29041 14.9283
ltoes -2.31105
40
root -9.29027 16.9892 -22.1072 3.58663 -10.7079 -6.76074
lowerback 6.51251 1.68326 4.2465
upperback 0.0107898 2.71542 4.29241
thorax -3.65841 1.30581 1.80532
lowerneck -15.95 -3.00562 -9.66292
upperneck 20.7926 -2.80532 4.85239
head 9.40608 -1.54336 2.92883
rclavicle 3.37934e-015 1.59028e-015
rhumerus -23.2552 1.39674 -81.4811
rradius 44.9281
rwrist -0.95455
rhand -18.1869 10.2922
rfingers 7.12502
rthumb 8.08999 -19.533
lclavicle 3.37934e-015 1.59028e-015
lhumerus -40.947 4.72802 87.5083
lradius 24.2998
lwrist -13.2769
lhand -11.06 26.4487
lfingers 7.12502
lthumb 14.9626 55.8882
rfemur 11.2578 5.98033 32.0754
rtibia 16.9737
rfoot -16.1899 -7.55688
rtoes -7.51856
lfemur -36.4373 -8.9803 -5.43813
ltibia 24.04
lfoot -6.60456 16.8978
ltoes -2.19663
41
root -9.29035 16.974 -21.819 3.62854 -11.1959 -6.69281
lowerback 6.31663 1.85069 4.12715
upperback 0.0186138 2.91077 4.17507
thorax -3.53988 1.40582 1.738
lowerneck -15.917 -2.939 -9.5361
upperneck 20.9496 -2.76386 4.89832
head 9.44914 -1.51198 2.93177
rclavicle 1.57537e-014 2.78299e-014
rhumerus -22.9996 1.46561 -81.5482
rradius 45.9362
rwrist -1.17476
rhand -18.859 9.99703
rfingers 7.12502
rthumb 7.44128 -19.8521
lclavicle 1.57537e-014 2.78299e-014
lhumerus -41.3035 5.29203 87.1319
lradius 23.718
lwrist -13.8193
lhand -11.1553 25.9392
lfingers 7.12502
lthumb 14.8709 55.3855
rfemur 12.3092 6.20131 31.7583
rtibia 16.6845
rfoot -16.1245 -6.84442
rtoes -7.17392
lfemur -36.4586 -10.1127 -4.4296
ltibia 21.9085
lfoot -7.55198 18.4895
ltoes -3.32101
42
root -9.28284 16.952 -21.5209 3.67395 -11.6232 -6.58553
lowerback 6.00967 1.99294 4.08772
upperback 0.0695123 3.06751 4.03041
thorax -3.30843 1.48681 1.60744
lowerneck -16.1287 -2.88726 -9.42305
upperneck 21.1695 -2.73133 5.00769
head 9.56151 -1.47666 2.95827
rclavicle -1.93318e-014 2.38542e-015
rhumerus -22.9013 1.41272 -81.5866
rradius 47.1242
rwrist -1.25123
rhand -19.6479 9.95697
rfingers 7.12502
rthumb 6.67972 -19.9177
lclavicle -1.93318e-014 2.38542e-015
lhumerus -41.6369 5.92146 86.6976
lradius 23.2542
lwrist -14.0232
lhand -11.7196 24.899
lfingers 7.12502
lthumb 14.3272 54.3847
rfemur 13.2055 6.34034 31.2981
rtibia 16.7241
rfoot -16.0623 -6.23312
rtoes -8.81203
lfemur -36.4045 -11.5065 -3.42527
ltibia 19.9838
lfoot -8.50924 20.3516
ltoes -3.22809
43
root -9.27738 16.9233 -21.2241 3.71168 -12.0476 -6.42768
lowerback 5.73015 2.10624 3.94662
upperback -0.0307827 3.19203 3.90842
thorax -3.25572 1.55069 1.55775
lowerneck -15.8269 -2.75257 -9.28758
upperneck 21.1923 -2.62364 5.06158
head 9.50208 -1.41391 2.97029
rclavicle -1.75427e-014 1.98785e-014
rhumerus -23.0629 1.17013 -81.6579
rradius 48.0764
rwrist -1.28327
rhand -19.4956 10.5211
rfingers 7.12502
rthumb 6.82675 -19.3488
lclavicle -1.75427e-014 1.98785e-014
lhumerus -42.3552 6.75719 86.1324
lradius 22.8712
lwrist -14.5043
lhand -11.9671 24.2015
lfingers 7.12502
lthumb 14.0887 53.704
rfemur 14.0585 6.52028 30.78
rtibia 16.8615
rfoot -16.0211 -5.41485
rtoes -11.812
lfemur -36.2473 -12.4037 -2.79592
ltibia 18.4534
lfoot -9.91642 21.6357
ltoes -3.59764
44
root -9.27309 16.8989 -20.9255 3.6029 -12.5867 -6.27177
lowerback 5.56387 2.26511 3.82303
upperback -0.052984 3.3815 3.76825
thorax -3.18357 1.64693 1.47228
lowerneck -15.5966 -2.71208 -9.26409
upperneck 21.2104 -2.63009 5.19892
head 9.46654 -1.40316 3.01491
rclavicle 2.57923e-014 -6.36111e-015
rhumerus -23.0456 0.885805 -81.7175
rradius 48.8163
rwrist -1.52342
rhand -19.0619 10.8416
rfingers 7.12502
rthumb 7.24544 -19.0144
lclavicle 2.57923e-014 -6.36111e-015
lhumerus -42.9652 7.63844 85.5294
lradius 22.4119
lwrist -14.8941
lhand -12.2853 24.172
lfingers 7.12502
lthumb 13.782 53.6955
rfemur 15.1031 6.87991 30.2864
rtibia 17.0119
rfoot -15.8321 -4.21643
rtoes -12.7286
lfemur -35.6983 -11.5995 -3.16616
ltibia 17.4732
lfoot -10.8871 20.9534
ltoes -5.7288
45
root -9.26279 16.8691 -20.6237 3.44233 -12.8037 -6.23663
lowerback 5.41111 2.30432 3.93618
upperback 0.0657009 3.4203 3.66277
thorax -2.96154 1.66727 1.3065
lowerneck -15.7284 -2.8049 -9.20159
upperneck 21.2188 -2.75024 5.14347
head 9.5023 -1.45867 2.96896
rclavicle 2.82771e-014 -1.19271e-015
rhumerus -22.8625 0.531498 -81.7339
rradius 49.5993
rwrist -1.66151
rhand -18.6877 10.8411
rfingers 7.12502
rthumb 7.60657 -19.0021
lclavicle 2.82771e-014 -1.19271e-015
lhumerus -43.3347 8.52722 84.9406
lradius 22.0623
lwrist -15.0711
lhand -12.6279 24.4656
lfingers 7.12502
lthumb 13.4519 54.0112
rfemur 16.0852 7.04276 29.9646
rtibia 17.3582
rfoot -15.2594 -3.24848
rtoes -12.9137
lfemur -35.283 -11.133 -3.49487
ltibia 17.0442
lfoot -10.7621 20.049
ltoes -7.06565
46
root -9.25163 16.8404 -20.3241 3.13615 -12.7183 -6.02565
lowerback 5.61169 2.25869 3.79876
upperback -0.0362324 3.36712 3.56575
thorax -3.18177 1.63872 1.27598
lowerneck -15.6308 -2.91426 -9.15097
upperneck 21.2455 -2.90578 5.05365
head 9.50435 -1.53869 2.90923
rclavicle -3.926e-014 -2.0276e-014
rhumerus -23.279 0.258061 -81.6782
rradius 50.4866
rwrist -1.79381
rhand -18.8607 11.0272
rfingers 7.12502
rthumb 7.43959 -18.822
lclavicle -3.926e-014 -2.0276e-014
lhumerus -44.1038 9.37658 84.3367
lradius 21.8585
lwrist -15.3678
lhand -12.6635 24.6033
lfingers 7.12502
lthumb 13.4175 54.1512
rfemur 17.0035 6.96097 29.5214
rtibia 18.0053
rfoot -14.5984 -2.592
rtoes -14.3684
lfemur -34.7254 -8.25469 -5.46101
ltibia 17.0648
lfoot -9.85761 15.9339
ltoes -6.96344
47
root -9.24236 16.8102 -20.0292 2.77109 -12.7586 -5.83404
lowerback 5.95632 2.24716 3.54304
upperback -0.147552 3.3629 3.56522
thorax -3.50544 1.63625 1.4012
lowerneck -15.5586 -2.8819 -9.2359
upperneck 21.4112 -2.84526 5.0332
head 9.54564 -1.52327 2.9268
rclavicle -4.44532e-014 2.10712e-014
rhumerus -23.6956 0.115424 -81.6153
rradius 51.2275
rwrist -2.38607
rhand -19.1966 11.2847
rfingers 7.12502
rthumb 7.11534 -18.5757
lclavicle -4.44532e-014 2.10712e-014
lhumerus -44.653 10.4697 83.6839
lradius 21.2175
lwrist -15.9073
lhand -12.2715 24.5922
lfingers 7.12502
lthumb 13.7953 54.1147
rfemur 17.7952 6.93142 29.0524
rtibia 18.9312
rfoot -13.7725 -1.77378
rtoes -14.9289
lfemur -34.2301 -5.87993 -7.10701
ltibia 17.5597
lfoot -8.89041 12.5387
ltoes -6.20405
